<mxfile host="app.diagrams.net" modified="2022-09-09T05:22:18.561Z" agent="5.0 (Macintosh; Intel Mac OS X 10_15_7) AppleWebKit/537.36 (KHTML, like Gecko) Chrome/105.0.0.0 Safari/537.36" etag="oJ81sJXf3CVCGep35kst" version="20.2.8" type="github">
  <diagram id="Q1lbnIge8eEQH-9hfLG9" name="第 1 页">
    <mxGraphModel dx="2755" dy="1028" grid="1" gridSize="10" guides="1" tooltips="1" connect="1" arrows="1" fold="1" page="1" pageScale="1" pageWidth="827" pageHeight="1169" math="0" shadow="0">
      <root>
        <mxCell id="0" />
        <mxCell id="1" parent="0" />
        <mxCell id="cvBlU5H9bP7NT6LMKIig-16" style="edgeStyle=orthogonalEdgeStyle;rounded=0;orthogonalLoop=1;jettySize=auto;html=1;exitX=1;exitY=0.5;exitDx=0;exitDy=0;entryX=0;entryY=0.5;entryDx=0;entryDy=0;" edge="1" parent="1" source="nWclfOt-MqA_zXtuq-44-1" target="nWclfOt-MqA_zXtuq-44-11">
          <mxGeometry relative="1" as="geometry" />
        </mxCell>
        <mxCell id="nWclfOt-MqA_zXtuq-44-1" value="" style="ellipse;whiteSpace=wrap;html=1;aspect=fixed;" parent="1" vertex="1">
          <mxGeometry x="200" y="160" width="40" height="40" as="geometry" />
        </mxCell>
        <mxCell id="cvBlU5H9bP7NT6LMKIig-19" style="edgeStyle=orthogonalEdgeStyle;rounded=0;orthogonalLoop=1;jettySize=auto;html=1;exitX=1;exitY=0.5;exitDx=0;exitDy=0;entryX=0;entryY=0.5;entryDx=0;entryDy=0;" edge="1" parent="1" source="nWclfOt-MqA_zXtuq-44-2" target="nWclfOt-MqA_zXtuq-44-7">
          <mxGeometry relative="1" as="geometry" />
        </mxCell>
        <mxCell id="nWclfOt-MqA_zXtuq-44-2" value="" style="ellipse;whiteSpace=wrap;html=1;aspect=fixed;" parent="1" vertex="1">
          <mxGeometry x="200" y="240" width="40" height="40" as="geometry" />
        </mxCell>
        <mxCell id="cvBlU5H9bP7NT6LMKIig-25" style="edgeStyle=orthogonalEdgeStyle;rounded=0;orthogonalLoop=1;jettySize=auto;html=1;exitX=1;exitY=0.5;exitDx=0;exitDy=0;entryX=0;entryY=0.5;entryDx=0;entryDy=0;" edge="1" parent="1" source="nWclfOt-MqA_zXtuq-44-3" target="nWclfOt-MqA_zXtuq-44-8">
          <mxGeometry relative="1" as="geometry" />
        </mxCell>
        <mxCell id="nWclfOt-MqA_zXtuq-44-3" value="" style="ellipse;whiteSpace=wrap;html=1;aspect=fixed;" parent="1" vertex="1">
          <mxGeometry x="200" y="320" width="40" height="40" as="geometry" />
        </mxCell>
        <mxCell id="cvBlU5H9bP7NT6LMKIig-31" style="edgeStyle=orthogonalEdgeStyle;rounded=0;orthogonalLoop=1;jettySize=auto;html=1;exitX=1;exitY=0.5;exitDx=0;exitDy=0;entryX=0;entryY=0.5;entryDx=0;entryDy=0;" edge="1" parent="1" source="nWclfOt-MqA_zXtuq-44-4" target="nWclfOt-MqA_zXtuq-44-9">
          <mxGeometry relative="1" as="geometry" />
        </mxCell>
        <mxCell id="nWclfOt-MqA_zXtuq-44-4" value="" style="ellipse;whiteSpace=wrap;html=1;aspect=fixed;" parent="1" vertex="1">
          <mxGeometry x="200" y="400" width="40" height="40" as="geometry" />
        </mxCell>
        <mxCell id="cvBlU5H9bP7NT6LMKIig-37" style="edgeStyle=orthogonalEdgeStyle;rounded=0;orthogonalLoop=1;jettySize=auto;html=1;exitX=1;exitY=0.5;exitDx=0;exitDy=0;entryX=0;entryY=0.5;entryDx=0;entryDy=0;" edge="1" parent="1" source="nWclfOt-MqA_zXtuq-44-5" target="nWclfOt-MqA_zXtuq-44-15">
          <mxGeometry relative="1" as="geometry" />
        </mxCell>
        <mxCell id="nWclfOt-MqA_zXtuq-44-5" value="" style="ellipse;whiteSpace=wrap;html=1;aspect=fixed;" parent="1" vertex="1">
          <mxGeometry x="200" y="480" width="40" height="40" as="geometry" />
        </mxCell>
        <mxCell id="cvBlU5H9bP7NT6LMKIig-20" style="edgeStyle=orthogonalEdgeStyle;rounded=0;orthogonalLoop=1;jettySize=auto;html=1;exitX=1;exitY=0.5;exitDx=0;exitDy=0;entryX=0;entryY=0.5;entryDx=0;entryDy=0;" edge="1" parent="1" source="nWclfOt-MqA_zXtuq-44-7" target="nWclfOt-MqA_zXtuq-44-12">
          <mxGeometry relative="1" as="geometry" />
        </mxCell>
        <mxCell id="cvBlU5H9bP7NT6LMKIig-43" style="edgeStyle=orthogonalEdgeStyle;rounded=0;orthogonalLoop=1;jettySize=auto;html=1;exitX=0.5;exitY=1;exitDx=0;exitDy=0;entryX=0.5;entryY=0;entryDx=0;entryDy=0;" edge="1" parent="1" source="nWclfOt-MqA_zXtuq-44-7" target="nWclfOt-MqA_zXtuq-44-8">
          <mxGeometry relative="1" as="geometry" />
        </mxCell>
        <mxCell id="nWclfOt-MqA_zXtuq-44-7" value="" style="ellipse;whiteSpace=wrap;html=1;aspect=fixed;" parent="1" vertex="1">
          <mxGeometry x="320" y="240" width="40" height="40" as="geometry" />
        </mxCell>
        <mxCell id="cvBlU5H9bP7NT6LMKIig-26" style="edgeStyle=orthogonalEdgeStyle;rounded=0;orthogonalLoop=1;jettySize=auto;html=1;exitX=1;exitY=0.5;exitDx=0;exitDy=0;entryX=0;entryY=0.5;entryDx=0;entryDy=0;" edge="1" parent="1" source="nWclfOt-MqA_zXtuq-44-8" target="nWclfOt-MqA_zXtuq-44-13">
          <mxGeometry relative="1" as="geometry" />
        </mxCell>
        <mxCell id="cvBlU5H9bP7NT6LMKIig-44" style="edgeStyle=orthogonalEdgeStyle;rounded=0;orthogonalLoop=1;jettySize=auto;html=1;exitX=0.5;exitY=1;exitDx=0;exitDy=0;entryX=0.5;entryY=0;entryDx=0;entryDy=0;" edge="1" parent="1" source="nWclfOt-MqA_zXtuq-44-8" target="nWclfOt-MqA_zXtuq-44-9">
          <mxGeometry relative="1" as="geometry" />
        </mxCell>
        <mxCell id="nWclfOt-MqA_zXtuq-44-8" value="" style="ellipse;whiteSpace=wrap;html=1;aspect=fixed;" parent="1" vertex="1">
          <mxGeometry x="320" y="320" width="40" height="40" as="geometry" />
        </mxCell>
        <mxCell id="cvBlU5H9bP7NT6LMKIig-32" style="edgeStyle=orthogonalEdgeStyle;rounded=0;orthogonalLoop=1;jettySize=auto;html=1;exitX=1;exitY=0.5;exitDx=0;exitDy=0;entryX=0;entryY=0.5;entryDx=0;entryDy=0;" edge="1" parent="1" source="nWclfOt-MqA_zXtuq-44-9" target="nWclfOt-MqA_zXtuq-44-14">
          <mxGeometry relative="1" as="geometry" />
        </mxCell>
        <mxCell id="nWclfOt-MqA_zXtuq-44-9" value="" style="ellipse;whiteSpace=wrap;html=1;aspect=fixed;" parent="1" vertex="1">
          <mxGeometry x="320" y="400" width="40" height="40" as="geometry" />
        </mxCell>
        <mxCell id="cvBlU5H9bP7NT6LMKIig-17" style="edgeStyle=orthogonalEdgeStyle;rounded=0;orthogonalLoop=1;jettySize=auto;html=1;exitX=1;exitY=0.5;exitDx=0;exitDy=0;entryX=0;entryY=0.5;entryDx=0;entryDy=0;" edge="1" parent="1" source="nWclfOt-MqA_zXtuq-44-11" target="nWclfOt-MqA_zXtuq-44-21">
          <mxGeometry relative="1" as="geometry" />
        </mxCell>
        <mxCell id="nWclfOt-MqA_zXtuq-44-11" value="" style="ellipse;whiteSpace=wrap;html=1;aspect=fixed;" parent="1" vertex="1">
          <mxGeometry x="440" y="160" width="40" height="40" as="geometry" />
        </mxCell>
        <mxCell id="cvBlU5H9bP7NT6LMKIig-21" style="edgeStyle=orthogonalEdgeStyle;rounded=0;orthogonalLoop=1;jettySize=auto;html=1;exitX=1;exitY=0.5;exitDx=0;exitDy=0;entryX=0;entryY=0.5;entryDx=0;entryDy=0;" edge="1" parent="1" source="nWclfOt-MqA_zXtuq-44-12" target="nWclfOt-MqA_zXtuq-44-17">
          <mxGeometry relative="1" as="geometry" />
        </mxCell>
        <mxCell id="nWclfOt-MqA_zXtuq-44-12" value="" style="ellipse;whiteSpace=wrap;html=1;aspect=fixed;" parent="1" vertex="1">
          <mxGeometry x="440" y="240" width="40" height="40" as="geometry" />
        </mxCell>
        <mxCell id="cvBlU5H9bP7NT6LMKIig-27" style="edgeStyle=orthogonalEdgeStyle;rounded=0;orthogonalLoop=1;jettySize=auto;html=1;exitX=1;exitY=0.5;exitDx=0;exitDy=0;entryX=0;entryY=0.5;entryDx=0;entryDy=0;" edge="1" parent="1" source="nWclfOt-MqA_zXtuq-44-13" target="nWclfOt-MqA_zXtuq-44-18">
          <mxGeometry relative="1" as="geometry" />
        </mxCell>
        <mxCell id="nWclfOt-MqA_zXtuq-44-13" value="" style="ellipse;whiteSpace=wrap;html=1;aspect=fixed;" parent="1" vertex="1">
          <mxGeometry x="440" y="320" width="40" height="40" as="geometry" />
        </mxCell>
        <mxCell id="cvBlU5H9bP7NT6LMKIig-33" style="edgeStyle=orthogonalEdgeStyle;rounded=0;orthogonalLoop=1;jettySize=auto;html=1;exitX=1;exitY=0.5;exitDx=0;exitDy=0;entryX=0;entryY=0.5;entryDx=0;entryDy=0;" edge="1" parent="1" source="nWclfOt-MqA_zXtuq-44-14" target="nWclfOt-MqA_zXtuq-44-19">
          <mxGeometry relative="1" as="geometry" />
        </mxCell>
        <mxCell id="nWclfOt-MqA_zXtuq-44-14" value="" style="ellipse;whiteSpace=wrap;html=1;aspect=fixed;" parent="1" vertex="1">
          <mxGeometry x="440" y="400" width="40" height="40" as="geometry" />
        </mxCell>
        <mxCell id="cvBlU5H9bP7NT6LMKIig-38" style="edgeStyle=orthogonalEdgeStyle;rounded=0;orthogonalLoop=1;jettySize=auto;html=1;exitX=1;exitY=0.5;exitDx=0;exitDy=0;entryX=0;entryY=0.5;entryDx=0;entryDy=0;" edge="1" parent="1" source="nWclfOt-MqA_zXtuq-44-15" target="nWclfOt-MqA_zXtuq-44-25">
          <mxGeometry relative="1" as="geometry" />
        </mxCell>
        <mxCell id="nWclfOt-MqA_zXtuq-44-15" value="" style="ellipse;whiteSpace=wrap;html=1;aspect=fixed;" parent="1" vertex="1">
          <mxGeometry x="440" y="480" width="40" height="40" as="geometry" />
        </mxCell>
        <mxCell id="cvBlU5H9bP7NT6LMKIig-22" style="edgeStyle=orthogonalEdgeStyle;rounded=0;orthogonalLoop=1;jettySize=auto;html=1;exitX=1;exitY=0.5;exitDx=0;exitDy=0;entryX=0;entryY=0.5;entryDx=0;entryDy=0;" edge="1" parent="1" source="nWclfOt-MqA_zXtuq-44-17" target="nWclfOt-MqA_zXtuq-44-22">
          <mxGeometry relative="1" as="geometry" />
        </mxCell>
        <mxCell id="nWclfOt-MqA_zXtuq-44-17" value="" style="ellipse;whiteSpace=wrap;html=1;aspect=fixed;" parent="1" vertex="1">
          <mxGeometry x="560" y="240" width="40" height="40" as="geometry" />
        </mxCell>
        <mxCell id="cvBlU5H9bP7NT6LMKIig-28" style="edgeStyle=orthogonalEdgeStyle;rounded=0;orthogonalLoop=1;jettySize=auto;html=1;exitX=1;exitY=0.5;exitDx=0;exitDy=0;entryX=0;entryY=0.5;entryDx=0;entryDy=0;" edge="1" parent="1" source="nWclfOt-MqA_zXtuq-44-18" target="nWclfOt-MqA_zXtuq-44-23">
          <mxGeometry relative="1" as="geometry" />
        </mxCell>
        <mxCell id="nWclfOt-MqA_zXtuq-44-18" value="" style="ellipse;whiteSpace=wrap;html=1;aspect=fixed;" parent="1" vertex="1">
          <mxGeometry x="560" y="320" width="40" height="40" as="geometry" />
        </mxCell>
        <mxCell id="cvBlU5H9bP7NT6LMKIig-34" style="edgeStyle=orthogonalEdgeStyle;rounded=0;orthogonalLoop=1;jettySize=auto;html=1;exitX=1;exitY=0.5;exitDx=0;exitDy=0;entryX=0;entryY=0.5;entryDx=0;entryDy=0;" edge="1" parent="1" source="nWclfOt-MqA_zXtuq-44-19" target="nWclfOt-MqA_zXtuq-44-24">
          <mxGeometry relative="1" as="geometry" />
        </mxCell>
        <mxCell id="nWclfOt-MqA_zXtuq-44-19" value="" style="ellipse;whiteSpace=wrap;html=1;aspect=fixed;" parent="1" vertex="1">
          <mxGeometry x="560" y="400" width="40" height="40" as="geometry" />
        </mxCell>
        <mxCell id="cvBlU5H9bP7NT6LMKIig-18" style="edgeStyle=orthogonalEdgeStyle;rounded=0;orthogonalLoop=1;jettySize=auto;html=1;exitX=1;exitY=0.5;exitDx=0;exitDy=0;entryX=0;entryY=0.5;entryDx=0;entryDy=0;" edge="1" parent="1" source="nWclfOt-MqA_zXtuq-44-21" target="nWclfOt-MqA_zXtuq-44-31">
          <mxGeometry relative="1" as="geometry" />
        </mxCell>
        <mxCell id="nWclfOt-MqA_zXtuq-44-21" value="" style="ellipse;whiteSpace=wrap;html=1;aspect=fixed;" parent="1" vertex="1">
          <mxGeometry x="680" y="160" width="40" height="40" as="geometry" />
        </mxCell>
        <mxCell id="cvBlU5H9bP7NT6LMKIig-23" style="edgeStyle=orthogonalEdgeStyle;rounded=0;orthogonalLoop=1;jettySize=auto;html=1;exitX=1;exitY=0.5;exitDx=0;exitDy=0;entryX=0;entryY=0.5;entryDx=0;entryDy=0;" edge="1" parent="1" source="nWclfOt-MqA_zXtuq-44-22" target="nWclfOt-MqA_zXtuq-44-27">
          <mxGeometry relative="1" as="geometry" />
        </mxCell>
        <mxCell id="nWclfOt-MqA_zXtuq-44-22" value="" style="ellipse;whiteSpace=wrap;html=1;aspect=fixed;" parent="1" vertex="1">
          <mxGeometry x="680" y="240" width="40" height="40" as="geometry" />
        </mxCell>
        <mxCell id="cvBlU5H9bP7NT6LMKIig-29" style="edgeStyle=orthogonalEdgeStyle;rounded=0;orthogonalLoop=1;jettySize=auto;html=1;exitX=1;exitY=0.5;exitDx=0;exitDy=0;entryX=0;entryY=0.5;entryDx=0;entryDy=0;" edge="1" parent="1" source="nWclfOt-MqA_zXtuq-44-23" target="nWclfOt-MqA_zXtuq-44-28">
          <mxGeometry relative="1" as="geometry" />
        </mxCell>
        <mxCell id="nWclfOt-MqA_zXtuq-44-23" value="" style="ellipse;whiteSpace=wrap;html=1;aspect=fixed;" parent="1" vertex="1">
          <mxGeometry x="680" y="320" width="40" height="40" as="geometry" />
        </mxCell>
        <mxCell id="cvBlU5H9bP7NT6LMKIig-35" style="edgeStyle=orthogonalEdgeStyle;rounded=0;orthogonalLoop=1;jettySize=auto;html=1;exitX=1;exitY=0.5;exitDx=0;exitDy=0;entryX=0;entryY=0.5;entryDx=0;entryDy=0;" edge="1" parent="1" source="nWclfOt-MqA_zXtuq-44-24" target="nWclfOt-MqA_zXtuq-44-29">
          <mxGeometry relative="1" as="geometry" />
        </mxCell>
        <mxCell id="nWclfOt-MqA_zXtuq-44-24" value="" style="ellipse;whiteSpace=wrap;html=1;aspect=fixed;" parent="1" vertex="1">
          <mxGeometry x="680" y="400" width="40" height="40" as="geometry" />
        </mxCell>
        <mxCell id="cvBlU5H9bP7NT6LMKIig-39" style="edgeStyle=orthogonalEdgeStyle;rounded=0;orthogonalLoop=1;jettySize=auto;html=1;exitX=1;exitY=0.5;exitDx=0;exitDy=0;entryX=0;entryY=0.5;entryDx=0;entryDy=0;" edge="1" parent="1" source="nWclfOt-MqA_zXtuq-44-25" target="nWclfOt-MqA_zXtuq-44-35">
          <mxGeometry relative="1" as="geometry" />
        </mxCell>
        <mxCell id="nWclfOt-MqA_zXtuq-44-25" value="" style="ellipse;whiteSpace=wrap;html=1;aspect=fixed;" parent="1" vertex="1">
          <mxGeometry x="680" y="480" width="40" height="40" as="geometry" />
        </mxCell>
        <mxCell id="cvBlU5H9bP7NT6LMKIig-24" style="edgeStyle=orthogonalEdgeStyle;rounded=0;orthogonalLoop=1;jettySize=auto;html=1;exitX=1;exitY=0.5;exitDx=0;exitDy=0;entryX=0;entryY=0.5;entryDx=0;entryDy=0;" edge="1" parent="1" source="nWclfOt-MqA_zXtuq-44-27" target="nWclfOt-MqA_zXtuq-44-32">
          <mxGeometry relative="1" as="geometry" />
        </mxCell>
        <mxCell id="nWclfOt-MqA_zXtuq-44-27" value="" style="ellipse;whiteSpace=wrap;html=1;aspect=fixed;" parent="1" vertex="1">
          <mxGeometry x="800" y="240" width="40" height="40" as="geometry" />
        </mxCell>
        <mxCell id="cvBlU5H9bP7NT6LMKIig-30" style="edgeStyle=orthogonalEdgeStyle;rounded=0;orthogonalLoop=1;jettySize=auto;html=1;exitX=1;exitY=0.5;exitDx=0;exitDy=0;entryX=0;entryY=0.5;entryDx=0;entryDy=0;" edge="1" parent="1" source="nWclfOt-MqA_zXtuq-44-28" target="nWclfOt-MqA_zXtuq-44-33">
          <mxGeometry relative="1" as="geometry" />
        </mxCell>
        <mxCell id="nWclfOt-MqA_zXtuq-44-28" value="" style="ellipse;whiteSpace=wrap;html=1;aspect=fixed;" parent="1" vertex="1">
          <mxGeometry x="800" y="320" width="40" height="40" as="geometry" />
        </mxCell>
        <mxCell id="cvBlU5H9bP7NT6LMKIig-36" style="edgeStyle=orthogonalEdgeStyle;rounded=0;orthogonalLoop=1;jettySize=auto;html=1;exitX=1;exitY=0.5;exitDx=0;exitDy=0;entryX=0;entryY=0.5;entryDx=0;entryDy=0;" edge="1" parent="1" source="nWclfOt-MqA_zXtuq-44-29" target="nWclfOt-MqA_zXtuq-44-34">
          <mxGeometry relative="1" as="geometry" />
        </mxCell>
        <mxCell id="nWclfOt-MqA_zXtuq-44-29" value="" style="ellipse;whiteSpace=wrap;html=1;aspect=fixed;" parent="1" vertex="1">
          <mxGeometry x="800" y="400" width="40" height="40" as="geometry" />
        </mxCell>
        <mxCell id="nWclfOt-MqA_zXtuq-44-31" value="" style="ellipse;whiteSpace=wrap;html=1;aspect=fixed;" parent="1" vertex="1">
          <mxGeometry x="920" y="160" width="40" height="40" as="geometry" />
        </mxCell>
        <mxCell id="nWclfOt-MqA_zXtuq-44-32" value="" style="ellipse;whiteSpace=wrap;html=1;aspect=fixed;" parent="1" vertex="1">
          <mxGeometry x="920" y="240" width="40" height="40" as="geometry" />
        </mxCell>
        <mxCell id="nWclfOt-MqA_zXtuq-44-33" value="" style="ellipse;whiteSpace=wrap;html=1;aspect=fixed;" parent="1" vertex="1">
          <mxGeometry x="920" y="320" width="40" height="40" as="geometry" />
        </mxCell>
        <mxCell id="nWclfOt-MqA_zXtuq-44-34" value="" style="ellipse;whiteSpace=wrap;html=1;aspect=fixed;" parent="1" vertex="1">
          <mxGeometry x="920" y="400" width="40" height="40" as="geometry" />
        </mxCell>
        <mxCell id="nWclfOt-MqA_zXtuq-44-35" value="" style="ellipse;whiteSpace=wrap;html=1;aspect=fixed;" parent="1" vertex="1">
          <mxGeometry x="920" y="480" width="40" height="40" as="geometry" />
        </mxCell>
        <mxCell id="nWclfOt-MqA_zXtuq-44-38" value="" style="rounded=0;whiteSpace=wrap;html=1;" parent="1" vertex="1">
          <mxGeometry x="-621" y="719.3333333333335" width="760.0000000000002" height="12.66666666666667" as="geometry" />
        </mxCell>
        <mxCell id="nWclfOt-MqA_zXtuq-44-39" value="" style="rounded=0;whiteSpace=wrap;html=1;" parent="1" vertex="1">
          <mxGeometry x="-589.3333333333334" y="681.3333333333335" width="696.6666666666669" height="12.66666666666667" as="geometry" />
        </mxCell>
        <mxCell id="cvBlU5H9bP7NT6LMKIig-7" style="edgeStyle=orthogonalEdgeStyle;rounded=0;orthogonalLoop=1;jettySize=auto;html=1;exitX=0.5;exitY=0;exitDx=0;exitDy=0;entryX=0.5;entryY=1;entryDx=0;entryDy=0;" edge="1" parent="1" source="nWclfOt-MqA_zXtuq-44-38" target="nWclfOt-MqA_zXtuq-44-39">
          <mxGeometry relative="1" as="geometry" />
        </mxCell>
        <mxCell id="nWclfOt-MqA_zXtuq-44-40" value="" style="rounded=0;whiteSpace=wrap;html=1;" parent="1" vertex="1">
          <mxGeometry x="-557.6666666666666" y="637.0000000000001" width="633.3333333333336" height="12.66666666666667" as="geometry" />
        </mxCell>
        <mxCell id="cvBlU5H9bP7NT6LMKIig-8" style="edgeStyle=orthogonalEdgeStyle;rounded=0;orthogonalLoop=1;jettySize=auto;html=1;exitX=0.5;exitY=0;exitDx=0;exitDy=0;entryX=0.5;entryY=1;entryDx=0;entryDy=0;" edge="1" parent="1" source="nWclfOt-MqA_zXtuq-44-39" target="nWclfOt-MqA_zXtuq-44-40">
          <mxGeometry relative="1" as="geometry" />
        </mxCell>
        <mxCell id="cvBlU5H9bP7NT6LMKIig-1" value="" style="rounded=0;whiteSpace=wrap;html=1;" vertex="1" parent="1">
          <mxGeometry x="-526" y="542.0000000000001" width="570" height="19" as="geometry" />
        </mxCell>
        <mxCell id="cvBlU5H9bP7NT6LMKIig-9" style="edgeStyle=orthogonalEdgeStyle;rounded=0;orthogonalLoop=1;jettySize=auto;html=1;exitX=0.5;exitY=0;exitDx=0;exitDy=0;entryX=0.5;entryY=1;entryDx=0;entryDy=0;" edge="1" parent="1" source="nWclfOt-MqA_zXtuq-44-40" target="cvBlU5H9bP7NT6LMKIig-1">
          <mxGeometry relative="1" as="geometry" />
        </mxCell>
        <mxCell id="cvBlU5H9bP7NT6LMKIig-2" value="" style="rounded=0;whiteSpace=wrap;html=1;" vertex="1" parent="1">
          <mxGeometry x="-462.66666666666663" y="453.33333333333337" width="443.3333333333335" height="19" as="geometry" />
        </mxCell>
        <mxCell id="cvBlU5H9bP7NT6LMKIig-10" style="edgeStyle=orthogonalEdgeStyle;rounded=0;orthogonalLoop=1;jettySize=auto;html=1;exitX=0.5;exitY=0;exitDx=0;exitDy=0;entryX=0.5;entryY=1;entryDx=0;entryDy=0;" edge="1" parent="1" source="cvBlU5H9bP7NT6LMKIig-1" target="cvBlU5H9bP7NT6LMKIig-2">
          <mxGeometry relative="1" as="geometry" />
        </mxCell>
        <mxCell id="cvBlU5H9bP7NT6LMKIig-3" value="" style="rounded=0;whiteSpace=wrap;html=1;" vertex="1" parent="1">
          <mxGeometry x="-399.33333333333326" y="364.66666666666674" width="316.6666666666668" height="19" as="geometry" />
        </mxCell>
        <mxCell id="cvBlU5H9bP7NT6LMKIig-11" style="edgeStyle=orthogonalEdgeStyle;rounded=0;orthogonalLoop=1;jettySize=auto;html=1;exitX=0.5;exitY=0;exitDx=0;exitDy=0;entryX=0.5;entryY=1;entryDx=0;entryDy=0;" edge="1" parent="1" source="cvBlU5H9bP7NT6LMKIig-2" target="cvBlU5H9bP7NT6LMKIig-3">
          <mxGeometry relative="1" as="geometry" />
        </mxCell>
        <mxCell id="cvBlU5H9bP7NT6LMKIig-4" value="" style="rounded=0;whiteSpace=wrap;html=1;" vertex="1" parent="1">
          <mxGeometry x="-336" y="282.33333333333337" width="190.00000000000006" height="19" as="geometry" />
        </mxCell>
        <mxCell id="cvBlU5H9bP7NT6LMKIig-12" style="edgeStyle=orthogonalEdgeStyle;rounded=0;orthogonalLoop=1;jettySize=auto;html=1;exitX=0.5;exitY=0;exitDx=0;exitDy=0;entryX=0.5;entryY=1;entryDx=0;entryDy=0;" edge="1" parent="1" source="cvBlU5H9bP7NT6LMKIig-3" target="cvBlU5H9bP7NT6LMKIig-4">
          <mxGeometry relative="1" as="geometry" />
        </mxCell>
        <mxCell id="cvBlU5H9bP7NT6LMKIig-15" style="edgeStyle=orthogonalEdgeStyle;rounded=0;orthogonalLoop=1;jettySize=auto;html=1;exitX=0.5;exitY=0;exitDx=0;exitDy=0;entryX=0;entryY=0.5;entryDx=0;entryDy=0;" edge="1" parent="1" source="cvBlU5H9bP7NT6LMKIig-5" target="nWclfOt-MqA_zXtuq-44-1">
          <mxGeometry relative="1" as="geometry" />
        </mxCell>
        <mxCell id="cvBlU5H9bP7NT6LMKIig-5" value="" style="rounded=0;whiteSpace=wrap;html=1;" vertex="1" parent="1">
          <mxGeometry x="-304.3333333333332" y="200" width="126.66666666666669" height="19" as="geometry" />
        </mxCell>
        <mxCell id="cvBlU5H9bP7NT6LMKIig-13" style="edgeStyle=orthogonalEdgeStyle;rounded=0;orthogonalLoop=1;jettySize=auto;html=1;exitX=0.5;exitY=0;exitDx=0;exitDy=0;entryX=0.5;entryY=1;entryDx=0;entryDy=0;" edge="1" parent="1" source="cvBlU5H9bP7NT6LMKIig-4" target="cvBlU5H9bP7NT6LMKIig-5">
          <mxGeometry relative="1" as="geometry" />
        </mxCell>
        <mxCell id="cvBlU5H9bP7NT6LMKIig-41" value="" style="endArrow=classic;html=1;rounded=0;exitX=1;exitY=0.5;exitDx=0;exitDy=0;entryX=0;entryY=0.5;entryDx=0;entryDy=0;" edge="1" parent="1" source="nWclfOt-MqA_zXtuq-44-9" target="nWclfOt-MqA_zXtuq-44-15">
          <mxGeometry width="50" height="50" relative="1" as="geometry">
            <mxPoint x="150" y="470" as="sourcePoint" />
            <mxPoint x="200" y="420" as="targetPoint" />
          </mxGeometry>
        </mxCell>
        <mxCell id="cvBlU5H9bP7NT6LMKIig-42" value="" style="endArrow=classic;html=1;rounded=0;exitX=1;exitY=0.5;exitDx=0;exitDy=0;entryX=0;entryY=0.5;entryDx=0;entryDy=0;" edge="1" parent="1" source="nWclfOt-MqA_zXtuq-44-19" target="nWclfOt-MqA_zXtuq-44-25">
          <mxGeometry width="50" height="50" relative="1" as="geometry">
            <mxPoint x="610" y="505" as="sourcePoint" />
            <mxPoint x="690" y="585" as="targetPoint" />
          </mxGeometry>
        </mxCell>
      </root>
    </mxGraphModel>
  </diagram>
</mxfile>
